<svg width="48" height="48" xmlns="http://www.w3.org/2000/svg">

 <g>
  <title>Layer 1</title>
  <path id="svg_3" d="m24,46c-12.1547,0 -22,-9.8453 -22,-22c0,-12.1547 9.8453,-22 22,-22c12.1547,0 22,9.8453 22,22c0,12.1547 -9.8453,22 -22,22z" opacity="undefined" stroke="null" fill="#ff41c8"/>
  <path stroke="null" stroke-dasharray="2,2" id="svg_2" d="m18.44652,21.42701l2.37395,-6.49297l4.08185,0l-4.14263,9.37578l4.23937,9.53135l-4.13023,0l-2.42232,-6.60998l-2.40992,6.60998l-4.13023,0l4.23937,-9.53135l-4.15503,-9.37578l4.08185,0l2.37395,6.49297zm7.41208,4.96114c0,-2.30306 0.36341,-4.02104 1.09023,-5.15528s1.78356,-1.7007 3.17395,-1.7007c1.00837,0 1.8493,0.46806 2.51907,1.40284l0,-7.03815l3.45178,0l0,19.94563l-3.11317,0l-0.15752,-1.42811c-0.70201,1.12626 -1.60744,1.68873 -2.71379,1.68873c-1.37178,0 -2.41984,-0.56247 -3.14294,-1.68873s-1.09271,-2.77909 -1.10884,-4.95981l0,-1.06643l0.00124,0zm3.44061,0.92149c0,1.38556 0.13643,2.35358 0.41178,2.90275s0.73922,0.82442 1.39287,0.82442c0.67845,0 1.1907,-0.32445 1.53798,-0.97335l0,-6.41452c-0.3386,-0.69278 -0.84837,-1.0385 -1.52558,-1.0385c-0.63008,0 -1.09023,0.27259 -1.38046,0.81777s-0.43659,1.51587 -0.43659,2.9094l0,0.97202z" fill="#ffffff"/>
 </g>
</svg>