<svg width="48" height="48" xmlns="http://www.w3.org/2000/svg">

 <g>
  <title>Layer 1</title>
  <ellipse ry="22" rx="22" id="svg_6" cy="24" cx="24" fill="#5d4037"/>
  <path stroke="null" id="svg_3" d="m23.2442,33.43101l2.3663,0l0,8l-2.3663,0l0,-8z" fill="#dcedc8"/>
  <path stroke="null" id="svg_4" d="m24.4884,8.1044c0,0 -6.9768,6.221 -6.9768,16.1746c0,6.46984 3.83724,10.5757 5.814,12.442l1.1628,-3.7326l1.1628,3.7326c1.97676,-1.8663 5.814,-5.97216 5.814,-12.442c0,-9.9536 -6.9768,-16.1746 -6.9768,-16.1746z" fill="#4caf50"/>
  <path stroke="null" id="svg_5" d="m24.6801,8.22649c0,0 -8.442,6.221 -8.442,16.1746c0,6.46984 4.6431,10.5757 7.035,12.442l1.407,-3.7326l0,-24.88401z" fill="#81c784"/>
 </g>
</svg>