<svg width="50" height="50" xmlns="http://www.w3.org/2000/svg" xmlns:xlink="http://www.w3.org/1999/xlink" stroke-linejoin="round" stroke-linecap="round" stroke="#000" fill-rule="evenodd" fill="#fff">
 <symbol overflow="visible" id="A">
  <g id="svg_1" fill="#0072c6">
   <path id="svg_2" d="m0,10.929l0,58.14c0,6.037 13.432,10.931 30,10.931l0,-69.071l-30,0z"/>
   <use id="svg_3" xlink:href="#C"/>
  </g>
  <use id="svg_4" opacity="0.15" xlink:href="#C"/>
  <path id="svg_5" d="m60,10.929c0,6.036 -13.432,10.929 -30,10.929s-30,-4.893 -30,-10.929s13.432,-10.929 30,-10.929s30,4.893 30,10.929"/>
  <path id="svg_6" fill="#7fba00" d="m53.866,10.299c0,3.985 -10.685,7.211 -23.866,7.211s-23.868,-3.226 -23.868,-7.211s10.687,-7.211 23.868,-7.211s23.866,3.228 23.866,7.211"/>
  <path id="svg_7" fill="#b8d432" d="m48.867,14.707c3.124,-1.219 5.002,-2.745 5.002,-4.404c-0.001,-3.985 -10.686,-7.213 -23.869,-7.213s-23.866,3.228 -23.866,7.213c0,1.658 1.877,3.185 5.002,4.404c4.363,-1.704 11.182,-2.803 18.865,-2.803s14.5,1.099 18.866,2.803"/>
  <path id="svg_8" d="m20.472,51.287c0,1.807 -0.651,3.206 -1.955,4.197s-3.102,1.488 -5.399,1.488c-1.954,0 -3.587,-0.354 -4.899,-1.063l0,-4.251c1.514,1.293 3.182,1.94 5.004,1.94c0.88,0 1.561,-0.177 2.041,-0.532s0.72,-0.823 0.72,-1.409c0,-0.575 -0.231,-1.075 -0.693,-1.5s-1.402,-0.974 -2.819,-1.647c-2.888,-1.362 -4.331,-3.224 -4.331,-5.577c0,-1.708 0.629,-3.078 1.889,-4.11s2.931,-1.547 5.016,-1.547c1.849,0 3.379,0.245 4.596,0.731l0,3.971c-1.276,-0.886 -2.729,-1.328 -4.357,-1.328c-0.818,0 -1.465,0.174 -1.94,0.523a1.65,1.65 0 0 0 -0.712,1.401c0,0.602 0.191,1.096 0.575,1.481s1.168,0.861 2.356,1.428c1.77,0.842 3.03,1.695 3.784,2.563s1.125,1.95 1.125,3.241l-0.001,0zm20.37,-4.302c0,2.24 -0.507,4.185 -1.519,5.83s-2.438,2.801 -4.277,3.466l5.491,5.113l-5.544,0l-3.921,-4.423c-1.681,-0.061 -3.198,-0.509 -4.549,-1.341s-2.395,-1.972 -3.129,-3.42s-1.103,-3.062 -1.103,-4.841c0,-1.974 0.398,-3.734 1.194,-5.279s1.916,-2.734 3.36,-3.566s3.097,-1.248 4.965,-1.248c1.741,0 3.302,0.403 4.68,1.209s2.446,1.951 3.208,3.439s1.144,3.175 1.144,5.06l0,0.001zm-4.488,0.24c0,-1.931 -0.418,-3.455 -1.255,-4.576s-1.98,-1.681 -3.433,-1.681c-1.479,0 -2.662,0.562 -3.552,1.685s-1.333,2.621 -1.333,4.489c0,1.86 0.435,3.344 1.306,4.455s2.028,1.666 3.472,1.666c1.471,0 2.636,-0.538 3.499,-1.613s1.296,-2.55 1.296,-4.426l0,0.001zm18.893,9.414l-11.275,0l0,-19.043l4.264,0l0,15.564l7.01,0l0.001,3.479z"/>
 </symbol>
 <defs>
  <path d="m29.589,79.999l0.411,0c16.568,0 30,-4.892 30,-10.929l0,-58.14l-30.411,0l0,69.07l0,-0.001z" id="C"/>
 </defs>
 <g>
  <title>Layer 1</title>
  <ellipse stroke="#ffffff" ry="22" rx="22" id="svg_10" cy="25" cx="25" fill="#0f540f"/>
  <use transform="matrix(0.340686 0 0 0.332355 7.13316 26.7646)" stroke="null" stroke-width="0" id="svg_9" y="-45.82838" x="22.73871" xlink:href="#A"/>
 </g>
</svg>