<svg width="64" height="64" xmlns="http://www.w3.org/2000/svg">
 <defs>
  <linearGradient id="UkOGjJSH0tJ0foaMEsaA_a" x1="0.5" x2="0.5" y1="0" y2="1">
   <stop offset="0" stop-color="#6dc7ff"/>
   <stop offset="1" stop-color="#e6abff"/>
  </linearGradient>
  <linearGradient id="UkOGjJSH0tJ0foaMEsaA_b" x1="0.5" x2="0.5" y1="0" y2="1">
   <stop offset="0" stop-color="#6dc7ff"/>
   <stop offset="1" stop-color="#e6abff"/>
  </linearGradient>
  <linearGradient id="UkOGjJSH0tJ0foaMEsaA_c" x1="0.5" x2="0.5" y1="-0.01019" y2="1.00754">
   <stop offset="0" stop-color="#1a6dff"/>
   <stop offset="1" stop-color="#c822ff"/>
  </linearGradient>
 </defs>
 <g>
  <title>Layer 1</title>
  <path fill="url(#UkOGjJSH0tJ0foaMEsaA_a)" d="m27,47l-10,0c-1.105,0 -2,-0.895 -2,-2l0,-28c0,-1.105 0.895,-2 2,-2l10,0c1.105,0 2,0.895 2,2l0,28c0,1.105 -0.895,2 -2,2z" id="svg_1"/>
  <path fill="url(#UkOGjJSH0tJ0foaMEsaA_b)" d="m47,33l-10,0c-1.105,0 -2,-0.895 -2,-2l0,-14c0,-1.105 0.895,-2 2,-2l10,0c1.105,0 2,0.895 2,2l0,14c0,1.105 -0.895,2 -2,2z" id="svg_2"/>
  <path stroke="null" fill="#191919" opacity="undefined" d="m32,59.69231c-15.47669,0 -28.01282,-12.39269 -28.01282,-27.69231c0,-15.29961 12.53613,-27.69231 28.01282,-27.69231c15.47669,0 28.01282,12.39269 28.01282,27.69231c0,15.29961 -12.53613,27.69231 -28.01282,27.69231z" id="svg_4"/>
  <path fill="url(#UkOGjJSH0tJ0foaMEsaA_c)" d="m41.77299,44.27586l-19.54598,0c-1.41811,0 -2.57184,-1.14728 -2.57184,-2.55747l0,-19.43678c0,-1.41019 1.15373,-2.55747 2.57184,-2.55747l19.54598,0c1.41811,0 2.57184,1.14728 2.57184,2.55747l0,19.43678c0,1.41019 -1.15373,2.55747 -2.57184,2.55747zm-19.54598,-23.52874c-0.85076,0 -1.5431,0.68847 -1.5431,1.53448l0,19.43678c0,0.84601 0.69234,1.53448 1.5431,1.53448l19.54598,0c0.85076,0 1.5431,-0.68847 1.5431,-1.53448l0,-19.43678c0,-0.84601 -0.69234,-1.53448 -1.5431,-1.53448l-19.54598,0zm7.20115,19.43678l-5.14368,0c-0.85076,0 -1.5431,-0.68847 -1.5431,-1.53448l0,-14.32184c0,-0.84601 0.69234,-1.53448 1.5431,-1.53448l5.14368,0c0.85076,0 1.5431,0.68847 1.5431,1.53448l0,14.32184c0,0.84601 -0.69234,1.53448 -1.5431,1.53448zm-5.14368,-16.36782c-0.28342,0 -0.51437,0.22966 -0.51437,0.51149l0,14.32184c0,0.28234 0.23095,0.51149 0.51437,0.51149l5.14368,0c0.28342,0 0.51437,-0.22915 0.51437,-0.51149l0,-14.32184c0,-0.28183 -0.23095,-0.51149 -0.51437,-0.51149l-5.14368,0zm15.43103,9.2069l-5.14368,0c-0.85076,0 -1.5431,-0.68847 -1.5431,-1.53448l0,-7.16092c0,-0.84601 0.69234,-1.53448 1.5431,-1.53448l5.14368,0c0.85076,0 1.5431,0.68847 1.5431,1.53448l0,7.16092c0,0.84601 -0.69234,1.53448 -1.5431,1.53448zm-5.14368,-9.2069c-0.28393,0 -0.51437,0.22966 -0.51437,0.51149l0,7.16092c0,0.28183 0.23044,0.51149 0.51437,0.51149l5.14368,0c0.28393,0 0.51437,-0.22966 0.51437,-0.51149l0,-7.16092c0,-0.28183 -0.23044,-0.51149 -0.51437,-0.51149l-5.14368,0z" id="svg_3" stroke="null"/>
 </g>
</svg>