<svg width="48" height="48" xmlns="http://www.w3.org/2000/svg">

 <g>
  <title>Layer 1</title>
  <ellipse stroke="null" ry="20.76811" rx="20.05721" id="svg_4" cy="24.25776" cx="24.30512" fill="#0277bd"/>
  <path stroke="null" id="svg_1" d="m36.35036,17.11438l0,14.9501c0,0.73649 -0.4216,1.39179 -1.05667,1.63535l-4.70699,2.40083l0.42694,-6.29203l0,-10.43839l-0.42694,-6.29203l4.70699,2.40083c0.63507,0.24356 1.05667,0.89886 1.05667,1.63535z" fill="#fcfcfc"/>
  <path stroke="null" id="svg_2" d="m15.98911,29.2452l15.51624,-10.1712l0,-5.19272c0,-0.64485 -0.9198,-0.94628 -1.41198,-0.46291l-16.79912,13.32009c-0.55858,0.44677 -0.52693,1.22026 0.06641,1.63204c0,0 0.82174,0.66315 1.11903,0.84724c0.4568,0.28259 1.05697,0.31489 1.50942,0.02745z" fill="#fcfcfc"/>
  <path stroke="null" id="svg_3" d="m15.50721,18.01853l16.03957,11.3237l0,5.78111c0,0.71792 -0.95083,1.05351 -1.4596,0.51537l-17.36572,-14.8294c-0.57742,-0.49739 -0.5447,-1.35853 0.06865,-1.81697c0,0 0.84946,-0.73829 1.15677,-0.94324c0.47221,-0.31461 1.09262,-0.35057 1.56033,-0.03056z" fill="#fcfcfc"/>
 </g>
</svg>